<svg width="86" height="86" viewBox="0 0 86 86" fill="none" xmlns="http://www.w3.org/2000/svg">
<g clip-path="url(#clip0)">
<path d="M25.4343 37.1802L6.65332 72.5643L23.7081 70.9887L31.9626 85.9973L50.7436 50.6132L25.4343 37.1802Z" fill="#E95454"/>
<path d="M27.5854 75.694C28.1124 74.5621 27.5612 73.2096 26.4588 72.6235L25.3779 72.0481C24.2971 71.4324 23.8857 70.0638 24.4745 68.956C25.0714 67.8294 26.475 67.3992 27.6015 67.9961L30.656 69.6174C31.5997 70.1176 32.7828 69.7546 33.2695 68.8054L33.3447 68.6602C33.904 67.7649 33.5733 66.5818 32.643 66.0898L23.5066 61.242C22.3934 60.6504 21.8476 59.3034 22.3665 58.1687C22.9392 56.9615 24.3858 56.4855 25.55 57.104L34.025 61.6022C34.9687 62.1024 36.1518 61.7394 36.6519 60.7956L36.7003 60.6719L36.7138 60.6451C37.2542 59.6556 36.8751 58.4134 35.8775 57.8837L31.1238 55.3616C30.0107 54.7701 29.4649 53.423 29.9919 52.2749C30.5592 51.0811 32.0111 50.5918 33.1753 51.2102L38.4265 53.9984C39.4079 54.5201 40.5802 54.0845 41.0884 53.095C41.0964 53.0816 41.0964 53.0816 41.1018 53.0681C41.1099 53.0547 41.1099 53.0547 41.1153 53.0412C41.6503 52.0652 41.3546 50.8499 40.3705 50.331L34.7052 47.3249C33.6055 46.7415 33.0597 45.3944 33.5787 44.2598C34.1514 43.0525 35.5979 42.5766 36.7621 43.195L50.7383 50.6133L31.9573 85.9974L26.7815 76.5894C27.1149 76.3635 27.4053 76.0839 27.5854 75.694Z" fill="#ED6362"/>
<path d="M60.5656 37.1802L79.3466 72.5643L62.2918 70.9887L54.0373 85.9973L35.2563 50.6132L60.5656 37.1802Z" fill="#ED6362"/>
<path d="M58.4146 75.694C57.8876 74.5621 58.4388 73.2096 59.5412 72.6235L60.6221 72.0481C61.703 71.4324 62.1144 70.0638 61.5255 68.956C60.9286 67.8294 59.5251 67.3992 58.3985 67.9961L55.3441 69.6175C54.4003 70.1176 53.2173 69.7546 52.7306 68.8054L52.6553 68.6602C52.0961 67.7649 52.4268 66.5818 53.3571 66.0898L62.4962 61.2393C63.6093 60.6477 64.1551 59.3007 63.6362 58.166C63.0635 56.9588 61.617 56.4829 60.4527 57.1013L51.9777 61.5996C51.034 62.0997 49.8509 61.7367 49.3508 60.7929L49.3024 60.6693L49.289 60.6424C48.7485 59.6529 49.1277 58.4107 50.1252 57.881L54.8789 55.359C55.9921 54.7674 56.5379 53.4204 56.0109 52.2723C55.4436 51.0784 53.9916 50.5891 52.8274 51.2075L47.5709 54.0011C46.5895 54.5227 45.4172 54.0872 44.909 53.0977C44.9009 53.0843 44.9009 53.0843 44.8956 53.0708C44.8875 53.0574 44.8875 53.0574 44.8821 53.0439C44.347 52.0679 44.6428 50.8526 45.6269 50.3337L51.2921 47.3276C52.3918 46.7442 52.9376 45.3971 52.4187 44.2624C51.846 43.0552 50.3994 42.5793 49.2352 43.1977L35.259 50.616L54.04 86.0001L59.2159 76.5921C58.8852 76.3636 58.5948 76.0839 58.4146 75.694Z" fill="#E95454"/>
<path d="M42.9999 62.761C60.3309 62.761 74.3804 48.7115 74.3804 31.3805C74.3804 14.0495 60.3309 0 42.9999 0C25.6689 0 11.6194 14.0495 11.6194 31.3805C11.6194 48.7115 25.6689 62.761 42.9999 62.761Z" fill="#FFCC5B"/>
<path d="M47.2563 27.7801H27.3703C25.8242 27.7801 24.5551 26.511 24.5551 24.965L24.5767 24.7714V24.7284C24.5551 23.0963 25.8861 21.7627 27.5208 21.7627H41.3034C43.1291 21.7627 44.7424 20.4102 44.8499 18.5819C44.9359 16.6702 43.4114 15.0569 41.497 15.0569H26.8971C25.2865 15.0569 24.0819 13.7045 24.1034 12.0912C24.1034 12.0697 24.1034 12.0697 24.1034 12.0482C24.1034 12.0267 24.1034 12.0267 24.1034 12.0052C24.0819 10.3946 25.2838 9.03948 26.8971 9.03948H42.1746C43.9787 9.03948 45.592 7.68704 45.6996 5.88019C45.7856 3.94697 44.2611 2.35522 42.3467 2.35522H31.1587C19.7503 7.05787 11.7109 18.2754 11.7109 31.3804C11.7109 44.4854 19.7503 55.7002 31.1614 60.3975H45.3661C47.1703 60.3975 48.7836 59.045 48.8911 57.2382C48.9772 55.305 47.4526 53.7159 45.5382 53.7159L29.3788 53.7132C27.4724 53.7132 25.9372 52.1188 26.0393 50.1883C26.1334 48.3814 27.7575 47.0236 29.567 47.0236H35.8318C37.6333 46.9725 39.0879 45.4964 39.0879 43.6815C39.0879 41.8343 37.5849 40.3286 35.735 40.3286H26.2383C24.6923 40.3286 23.4232 39.0622 23.4447 37.5135V37.2768C23.3371 35.7523 24.5632 34.4617 26.0877 34.4617H47.0628C48.8884 34.4617 50.5017 33.1093 50.6092 31.3024C50.6953 29.3719 49.1681 27.7801 47.2563 27.7801Z" fill="#FDBC4B"/>
<path d="M42.9999 53.7779C30.6478 53.7779 20.5999 43.7273 20.5999 31.3778C20.5999 19.0284 30.6478 8.98047 42.9999 8.98047C55.3521 8.98047 65.4 19.0311 65.4 31.3805C65.4 43.73 55.3521 53.7779 42.9999 53.7779Z" fill="#FFDB70"/>
<path opacity="0.2" d="M65.4001 31.3805C65.4001 19.4639 56.0378 9.71711 44.2852 9.04492H42.1988C40.8221 9.04492 39.5933 10.0774 39.51 11.4541C39.4455 12.9275 40.607 14.1428 42.067 14.1428L54.3923 14.1455C55.8469 14.1455 57.0165 15.3608 56.9385 16.8343C56.8659 18.2136 55.6291 19.2488 54.2471 19.2488H49.4692C48.0952 19.2891 46.9847 20.413 46.9847 21.7977C46.9847 23.2066 48.1328 24.3547 49.5418 24.3547H56.7853C57.9656 24.3547 58.9309 25.3227 58.9148 26.5004V26.6778C58.9954 27.842 58.0624 28.8234 56.8982 28.8234H40.9028C39.51 28.8234 38.2812 29.8559 38.1979 31.2326C38.1333 32.706 39.2949 33.9213 40.7549 33.9213H55.9195C57.0999 33.9213 58.0651 34.8893 58.0651 36.067L58.049 36.2148V36.2471C58.0651 37.492 57.0488 38.5084 55.8039 38.5084H45.2908C43.898 38.5084 42.6693 39.5408 42.5859 40.9336C42.5214 42.3909 43.6829 43.6224 45.1429 43.6224H56.2771C57.5059 43.6224 58.4227 44.6549 58.4066 45.8836C58.4066 45.8998 58.4066 45.8998 58.4066 45.9159C58.4066 45.932 58.4066 45.932 58.4066 45.9482C58.4227 47.1769 57.5059 48.2094 56.2771 48.2094H44.6267C43.2501 48.2094 42.0213 49.2419 41.9379 50.6185C41.8734 52.0947 43.035 53.3073 44.495 53.3073H47.5682C57.7398 51.1886 65.4001 42.1624 65.4001 31.3805Z" fill="white"/>
<path d="M58.638 26.4198H47.7431L44.3741 16.0573C43.9412 14.7263 42.0564 14.7263 41.6235 16.0573L38.2572 26.4198H27.3623C25.9615 26.4198 25.378 28.2132 26.5126 29.0359L35.3264 35.4406L31.9601 45.803C31.5272 47.134 33.0517 48.2418 34.1864 47.419L43.0001 41.0144L51.8139 47.419C52.9485 48.2418 54.4731 47.134 54.0402 45.803L50.6738 35.4406L59.4876 29.0359C60.6196 28.2132 60.0388 26.4198 58.638 26.4198Z" fill="#EC9922"/>
</g>
<defs>
<clipPath id="clip0">
<rect width="86" height="86" fill="white"/>
</clipPath>
</defs>
</svg>
